<svg width="166" height="46" viewBox="0 0 166 46" fill="none" xmlns="http://www.w3.org/2000/svg">
<path d="M66.6242 29.2171C65.8282 29.2171 65.1117 29.0651 64.4749 28.7612C63.8526 28.4573 63.3605 28.052 62.9986 27.5454C62.6513 27.0244 62.4776 26.4455 62.4776 25.8087C62.4776 24.7666 62.8973 23.9489 63.7368 23.3555C64.5907 22.7476 65.7268 22.3279 67.1452 22.0963L69.6418 21.7055V21.5535C69.6418 21.1049 69.5695 20.772 69.4247 20.5549C69.2945 20.3233 69.0123 20.2075 68.5781 20.2075C68.2741 20.2075 68.0281 20.2654 67.8399 20.3812C67.6518 20.497 67.4781 20.6634 67.3189 20.8805C67.1742 21.0398 66.986 21.1194 66.7544 21.1194H63.6934C63.5342 21.1194 63.4111 21.0759 63.3243 20.9891C63.2375 20.9023 63.2013 20.7865 63.2157 20.6417C63.2302 20.3812 63.3388 20.0773 63.5414 19.7299C63.744 19.3681 64.0552 19.0207 64.4749 18.6879C64.9091 18.3405 65.4663 18.0583 66.1466 17.8412C66.8268 17.6096 67.6445 17.4938 68.5998 17.4938C69.5695 17.4938 70.4017 17.6024 71.0964 17.8195C71.7911 18.0366 72.3628 18.3405 72.8115 18.7313C73.2601 19.1221 73.593 19.5997 73.8101 20.1641C74.0272 20.7141 74.1358 21.3292 74.1358 22.0095V28.4355C74.1358 28.5948 74.0779 28.7322 73.9621 28.848C73.8608 28.9493 73.7305 29 73.5713 29H70.4017C70.2569 29 70.1267 28.9493 70.0109 28.848C69.8951 28.7322 69.8372 28.5948 69.8372 28.4355V27.7408C69.6491 28.0303 69.3958 28.2836 69.0774 28.5007C68.7734 28.7178 68.4116 28.8915 67.9919 29.0217C67.5866 29.152 67.1307 29.2171 66.6242 29.2171ZM67.8833 26.3731C68.2452 26.3731 68.5564 26.3008 68.8169 26.156C69.0919 25.9968 69.309 25.758 69.4682 25.4396C69.6274 25.1212 69.707 24.7232 69.707 24.2456V24.0936L68.1439 24.3975C67.6084 24.4988 67.2321 24.6508 67.015 24.8534C66.7979 25.0416 66.6893 25.2514 66.6893 25.483C66.6893 25.6567 66.74 25.8087 66.8413 25.9389C66.9426 26.0692 67.0801 26.1777 67.2538 26.2646C67.4419 26.3369 67.6518 26.3731 67.8833 26.3731ZM77.4091 33.1249C77.2499 33.1249 77.1124 33.067 76.9967 32.9512C76.8954 32.8499 76.8447 32.7196 76.8447 32.5604V18.2754C76.8447 18.1162 76.8954 17.9859 76.9967 17.8846C77.1124 17.7688 77.2499 17.7109 77.4091 17.7109H80.4702C80.6294 17.7109 80.7597 17.7688 80.861 17.8846C80.9768 17.9859 81.0347 18.1162 81.0347 18.2754V18.9918C81.382 18.5576 81.8235 18.203 82.359 17.928C82.8945 17.6386 83.553 17.4938 84.3346 17.4938C85.0148 17.4938 85.6227 17.5951 86.1582 17.7978C86.7082 18.0004 87.1858 18.3116 87.591 18.7313C87.9963 19.1365 88.3147 19.6576 88.5463 20.2944C88.7778 20.9312 88.9153 21.6766 88.9587 22.5305C88.9732 22.8344 88.9805 23.1094 88.9805 23.3555C88.9805 23.6015 88.9732 23.8837 88.9587 24.2021C88.9298 25.0126 88.7995 25.7291 88.568 26.3514C88.3364 26.9738 88.018 27.502 87.6127 27.9362C87.2075 28.3559 86.7299 28.6744 86.1799 28.8915C85.6299 29.1085 85.0148 29.2171 84.3346 29.2171C83.6688 29.2171 83.0826 29.1085 82.5761 28.8915C82.0695 28.6599 81.6498 28.3053 81.3169 27.8277V32.5604C81.3169 32.7196 81.259 32.8499 81.1432 32.9512C81.0274 33.067 80.8972 33.1249 80.7525 33.1249H77.4091ZM82.8583 25.8304C83.2346 25.8304 83.5241 25.758 83.7267 25.6133C83.9438 25.4541 84.0958 25.2442 84.1826 24.9837C84.2839 24.7087 84.349 24.3975 84.378 24.0502C84.4214 23.587 84.4214 23.1239 84.378 22.6607C84.349 22.3134 84.2839 22.0095 84.1826 21.7489C84.0958 21.4739 83.9438 21.2641 83.7267 21.1194C83.5241 20.9601 83.2346 20.8805 82.8583 20.8805C82.482 20.8805 82.1781 20.9601 81.9465 21.1194C81.7294 21.2786 81.5702 21.4884 81.4689 21.7489C81.382 22.0095 81.3314 22.2989 81.3169 22.6173C81.3024 22.9213 81.2952 23.1963 81.2952 23.4423C81.2952 23.6739 81.3024 23.9416 81.3169 24.2456C81.3314 24.5495 81.3893 24.8173 81.4906 25.0488C81.6064 25.2804 81.7728 25.4685 81.9899 25.6133C82.207 25.758 82.4965 25.8304 82.8583 25.8304ZM91.9942 33.1249C91.835 33.1249 91.6975 33.067 91.5817 32.9512C91.4804 32.8499 91.4297 32.7196 91.4297 32.5604V18.2754C91.4297 18.1162 91.4804 17.9859 91.5817 17.8846C91.6975 17.7688 91.835 17.7109 91.9942 17.7109H95.0553C95.2145 17.7109 95.3447 17.7688 95.446 17.8846C95.5618 17.9859 95.6197 18.1162 95.6197 18.2754V18.9918C95.9671 18.5576 96.4085 18.203 96.944 17.928C97.4795 17.6386 98.138 17.4938 98.9196 17.4938C99.5998 17.4938 100.208 17.5951 100.743 17.7978C101.293 18.0004 101.771 18.3116 102.176 18.7313C102.581 19.1365 102.9 19.6576 103.131 20.2944C103.363 20.9312 103.5 21.6766 103.544 22.5305C103.558 22.8344 103.565 23.1094 103.565 23.3555C103.565 23.6015 103.558 23.8837 103.544 24.2021C103.515 25.0126 103.385 25.7291 103.153 26.3514C102.921 26.9738 102.603 27.502 102.198 27.9362C101.793 28.3559 101.315 28.6744 100.765 28.8915C100.215 29.1085 99.5998 29.2171 98.9196 29.2171C98.2538 29.2171 97.6677 29.1085 97.1611 28.8915C96.6545 28.6599 96.2348 28.3053 95.9019 27.8277V32.5604C95.9019 32.7196 95.844 32.8499 95.7283 32.9512C95.6125 33.067 95.4822 33.1249 95.3375 33.1249H91.9942ZM97.4433 25.8304C97.8196 25.8304 98.1091 25.758 98.3117 25.6133C98.5288 25.4541 98.6808 25.2442 98.7676 24.9837C98.8689 24.7087 98.9341 24.3975 98.963 24.0502C99.0064 23.587 99.0064 23.1239 98.963 22.6607C98.9341 22.3134 98.8689 22.0095 98.7676 21.7489C98.6808 21.4739 98.5288 21.2641 98.3117 21.1194C98.1091 20.9601 97.8196 20.8805 97.4433 20.8805C97.067 20.8805 96.7631 20.9601 96.5315 21.1194C96.3144 21.2786 96.1552 21.4884 96.0539 21.7489C95.9671 22.0095 95.9164 22.2989 95.9019 22.6173C95.8875 22.9213 95.8802 23.1963 95.8802 23.4423C95.8802 23.6739 95.8875 23.9416 95.9019 24.2456C95.9164 24.5495 95.9743 24.8173 96.0756 25.0488C96.1914 25.2804 96.3578 25.4685 96.5749 25.6133C96.792 25.758 97.0815 25.8304 97.4433 25.8304ZM106.579 29C106.42 29 106.282 28.9493 106.167 28.848C106.065 28.7322 106.015 28.5948 106.015 28.4355V14.1505C106.015 13.9913 106.065 13.8611 106.167 13.7597C106.282 13.644 106.42 13.5861 106.579 13.5861H109.814C109.959 13.5861 110.089 13.644 110.205 13.7597C110.321 13.8611 110.378 13.9913 110.378 14.1505V28.4355C110.378 28.5948 110.321 28.7322 110.205 28.848C110.089 28.9493 109.959 29 109.814 29H106.579ZM118.715 29.2171C116.906 29.2171 115.466 28.754 114.395 27.8277C113.339 26.8869 112.796 25.4541 112.767 23.5291C112.767 23.4712 112.767 23.3989 112.767 23.312C112.767 23.2107 112.767 23.1384 112.767 23.0949C112.81 21.8937 113.071 20.8805 113.549 20.0556C114.041 19.2161 114.721 18.5793 115.589 18.1451C116.472 17.7109 117.507 17.4938 118.694 17.4938C120.025 17.4938 121.125 17.7616 121.994 18.2971C122.876 18.8181 123.535 19.5201 123.969 20.4029C124.403 21.2713 124.62 22.2483 124.62 23.3338V23.9416C124.62 24.0864 124.563 24.2166 124.447 24.3324C124.331 24.4482 124.194 24.5061 124.034 24.5061H117.348C117.348 24.5061 117.348 24.5206 117.348 24.5495C117.348 24.5784 117.348 24.6074 117.348 24.6363C117.348 24.9837 117.391 25.2949 117.478 25.5699C117.579 25.8304 117.731 26.0402 117.934 26.1994C118.137 26.3442 118.383 26.4165 118.672 26.4165C118.86 26.4165 119.019 26.3876 119.15 26.3297C119.28 26.2718 119.388 26.1994 119.475 26.1126C119.577 26.0113 119.663 25.9172 119.736 25.8304C119.866 25.7001 119.975 25.6205 120.061 25.5916C120.148 25.5481 120.279 25.5264 120.452 25.5264H123.861C123.991 25.5264 124.099 25.5699 124.186 25.6567C124.288 25.7435 124.331 25.8521 124.317 25.9823C124.302 26.2429 124.179 26.5613 123.947 26.9376C123.716 27.2994 123.369 27.654 122.905 28.0014C122.457 28.3487 121.878 28.6382 121.169 28.8697C120.459 29.1013 119.642 29.2171 118.715 29.2171ZM117.348 22.0746H120.04V22.0312C120.04 21.6404 119.989 21.3075 119.888 21.0325C119.786 20.7575 119.634 20.5549 119.432 20.4246C119.229 20.2799 118.983 20.2075 118.694 20.2075C118.404 20.2075 118.158 20.2799 117.956 20.4246C117.753 20.5549 117.601 20.7575 117.5 21.0325C117.398 21.3075 117.348 21.6404 117.348 22.0312V22.0746ZM132.398 33.1249C132.239 33.1249 132.102 33.067 131.986 32.9512C131.884 32.8499 131.834 32.7196 131.834 32.5604V18.2754C131.834 18.1162 131.884 17.9859 131.986 17.8846C132.102 17.7688 132.239 17.7109 132.398 17.7109H135.459C135.619 17.7109 135.749 17.7688 135.85 17.8846C135.966 17.9859 136.024 18.1162 136.024 18.2754V18.9918C136.371 18.5576 136.813 18.203 137.348 17.928C137.884 17.6386 138.542 17.4938 139.324 17.4938C140.004 17.4938 140.612 17.5951 141.147 17.7978C141.697 18.0004 142.175 18.3116 142.58 18.7313C142.985 19.1365 143.304 19.6576 143.535 20.2944C143.767 20.9312 143.904 21.6766 143.948 22.5305C143.962 22.8344 143.97 23.1094 143.97 23.3555C143.97 23.6015 143.962 23.8837 143.948 24.2021C143.919 25.0126 143.789 25.7291 143.557 26.3514C143.326 26.9738 143.007 27.502 142.602 27.9362C142.197 28.3559 141.719 28.6744 141.169 28.8915C140.619 29.1085 140.004 29.2171 139.324 29.2171C138.658 29.2171 138.072 29.1085 137.565 28.8915C137.059 28.6599 136.639 28.3053 136.306 27.8277V32.5604C136.306 32.7196 136.248 32.8499 136.132 32.9512C136.017 33.067 135.886 33.1249 135.742 33.1249H132.398ZM137.847 25.8304C138.224 25.8304 138.513 25.758 138.716 25.6133C138.933 25.4541 139.085 25.2442 139.172 24.9837C139.273 24.7087 139.338 24.3975 139.367 24.0502C139.411 23.587 139.411 23.1239 139.367 22.6607C139.338 22.3134 139.273 22.0095 139.172 21.7489C139.085 21.4739 138.933 21.2641 138.716 21.1194C138.513 20.9601 138.224 20.8805 137.847 20.8805C137.471 20.8805 137.167 20.9601 136.936 21.1194C136.719 21.2786 136.559 21.4884 136.458 21.7489C136.371 22.0095 136.321 22.2989 136.306 22.6173C136.292 22.9213 136.284 23.1963 136.284 23.4423C136.284 23.6739 136.292 23.9416 136.306 24.2456C136.321 24.5495 136.378 24.8173 136.48 25.0488C136.596 25.2804 136.762 25.4685 136.979 25.6133C137.196 25.758 137.486 25.8304 137.847 25.8304ZM146.983 29C146.824 29 146.687 28.9493 146.571 28.848C146.47 28.7322 146.419 28.5948 146.419 28.4355V18.2754C146.419 18.1162 146.47 17.9859 146.571 17.8846C146.687 17.7688 146.824 17.7109 146.983 17.7109H150.196C150.356 17.7109 150.493 17.7688 150.609 17.8846C150.725 17.9859 150.783 18.1162 150.783 18.2754V28.4355C150.783 28.5948 150.725 28.7322 150.609 28.848C150.493 28.9493 150.356 29 150.196 29H146.983ZM147.027 16.2998C146.868 16.2998 146.73 16.2491 146.614 16.1478C146.513 16.032 146.462 15.8945 146.462 15.7353V13.4558C146.462 13.2966 146.513 13.1591 146.614 13.0433C146.73 12.9275 146.868 12.8696 147.027 12.8696H150.153C150.312 12.8696 150.45 12.9275 150.565 13.0433C150.681 13.1591 150.739 13.2966 150.739 13.4558V15.7353C150.739 15.8945 150.681 16.032 150.565 16.1478C150.45 16.2491 150.312 16.2998 150.153 16.2998H147.027ZM159.247 29.2171C157.438 29.2171 155.998 28.754 154.926 27.8277C153.87 26.8869 153.327 25.4541 153.298 23.5291C153.298 23.4712 153.298 23.3989 153.298 23.312C153.298 23.2107 153.298 23.1384 153.298 23.0949C153.342 21.8937 153.602 20.8805 154.08 20.0556C154.572 19.2161 155.252 18.5793 156.121 18.1451C157.003 17.7109 158.038 17.4938 159.225 17.4938C160.557 17.4938 161.657 17.7616 162.525 18.2971C163.408 18.8181 164.066 19.5201 164.501 20.4029C164.935 21.2713 165.152 22.2483 165.152 23.3338V23.9416C165.152 24.0864 165.094 24.2166 164.978 24.3324C164.862 24.4482 164.725 24.5061 164.566 24.5061H157.879C157.879 24.5061 157.879 24.5206 157.879 24.5495C157.879 24.5784 157.879 24.6074 157.879 24.6363C157.879 24.9837 157.922 25.2949 158.009 25.5699C158.111 25.8304 158.263 26.0402 158.465 26.1994C158.668 26.3442 158.914 26.4165 159.203 26.4165C159.391 26.4165 159.551 26.3876 159.681 26.3297C159.811 26.2718 159.92 26.1994 160.007 26.1126C160.108 26.0113 160.195 25.9172 160.267 25.8304C160.397 25.7001 160.506 25.6205 160.593 25.5916C160.68 25.5481 160.81 25.5264 160.984 25.5264H164.392C164.522 25.5264 164.631 25.5699 164.718 25.6567C164.819 25.7435 164.862 25.8521 164.848 25.9823C164.833 26.2429 164.71 26.5613 164.479 26.9376C164.247 27.2994 163.9 27.654 163.437 28.0014C162.988 28.3487 162.409 28.6382 161.7 28.8697C160.991 29.1013 160.173 29.2171 159.247 29.2171ZM157.879 22.0746H160.571V22.0312C160.571 21.6404 160.52 21.3075 160.419 21.0325C160.318 20.7575 160.166 20.5549 159.963 20.4246C159.761 20.2799 159.514 20.2075 159.225 20.2075C158.936 20.2075 158.69 20.2799 158.487 20.4246C158.284 20.5549 158.132 20.7575 158.031 21.0325C157.93 21.3075 157.879 21.6404 157.879 22.0312V22.0746Z" fill="black"/>
<circle cx="23" cy="23" r="23" fill="black"/>
<path d="M18.9111 12.5733V28.2133M18.9111 12.5733H26.5778C27.9333 12.5733 29.2334 13.1226 30.1919 14.1003C31.1504 15.078 31.6889 16.404 31.6889 17.7867C31.6889 19.1693 31.1504 20.4953 30.1919 21.473C29.2334 22.4507 27.9333 23 26.5778 23H18.9111V12.5733ZM18.9111 28.2133C17.5556 28.2133 16.2555 28.7626 15.297 29.7403C14.3385 30.718 13.8 32.044 13.8 33.4267M18.9111 28.2133H29.1333C31.1667 28.2133 33.1167 27.1148 34.5545 25.1594C35.9923 23.204 36.8 20.552 36.8 17.7867C36.8 15.0213 35.9923 12.3693 34.5545 10.4139C33.1167 8.45851 31.1667 7.35999 29.1333 7.35999H13.8V33.4267M13.8 33.4267C13.8 34.8093 14.3385 36.1353 15.297 37.113C16.2555 38.0907 17.5556 38.64 18.9111 38.64V30.82" stroke="white" stroke-width="2" stroke-linecap="square" stroke-linejoin="round"/>
</svg>
