<svg width="268" height="36" viewBox="0 0 268 36" fill="none" xmlns="http://www.w3.org/2000/svg">
<path d="M240.194 17.7661C239.618 17.4461 238.994 17.2701 238.29 17.2701C237.346 17.2701 236.578 17.5581 235.97 18.1341L236.098 15.6381H241.346V13.7021H234.002L233.682 20.2621H235.906C236.05 19.8461 236.306 19.5421 236.674 19.3661C237.026 19.1901 237.41 19.0941 237.794 19.0941C238.37 19.0941 238.834 19.2861 239.186 19.6701C239.538 20.0541 239.714 20.5341 239.714 21.1101C239.714 21.7501 239.522 22.2461 239.138 22.5981C238.754 22.9501 238.306 23.1101 237.794 23.1101C237.25 23.1101 236.802 22.9501 236.434 22.5981C236.066 22.2621 235.858 21.8301 235.794 21.3021H233.506C233.538 22.0061 233.73 22.6301 234.082 23.1901C234.434 23.7501 234.93 24.1981 235.57 24.5181C236.21 24.8381 236.946 24.9981 237.794 24.9981C238.578 24.9981 239.298 24.8541 239.938 24.5501C240.578 24.2621 241.074 23.8141 241.458 23.2381C241.842 22.6621 242.034 21.9421 242.034 21.1101C242.034 20.3741 241.858 19.7021 241.538 19.1261C241.218 18.5501 240.77 18.0861 240.194 17.7661ZM241.461 28.1021H243.573L248.277 13.7021H246.149L241.461 28.1021ZM254.85 17.7661C254.274 17.4461 253.65 17.2701 252.946 17.2701C252.002 17.2701 251.234 17.5581 250.626 18.1341L250.754 15.6381H256.002V13.7021H248.658L248.338 20.2621H250.562C250.706 19.8461 250.962 19.5421 251.33 19.3661C251.682 19.1901 252.066 19.0941 252.45 19.0941C253.026 19.0941 253.49 19.2861 253.842 19.6701C254.194 20.0541 254.37 20.5341 254.37 21.1101C254.37 21.7501 254.178 22.2461 253.794 22.5981C253.41 22.9501 252.962 23.1101 252.45 23.1101C251.906 23.1101 251.458 22.9501 251.09 22.5981C250.722 22.2621 250.514 21.8301 250.45 21.3021H248.162C248.194 22.0061 248.386 22.6301 248.738 23.1901C249.09 23.7501 249.586 24.1981 250.226 24.5181C250.866 24.8381 251.602 24.9981 252.45 24.9981C253.234 24.9981 253.954 24.8541 254.594 24.5501C255.234 24.2621 255.73 23.8141 256.114 23.2381C256.498 22.6621 256.69 21.9421 256.69 21.1101C256.69 20.3741 256.514 19.7021 256.194 19.1261C255.874 18.5501 255.426 18.0861 254.85 17.7661Z" fill="black"/>
<path d="M18.1726 0.173828L22.0852 12.2358H34.7467L24.5033 19.6905L28.4159 31.7525L18.1726 24.2978L7.92927 31.7525L11.8419 19.6905L1.59854 12.2358H14.26L18.1726 0.173828Z" fill="#FEC90D"/>
<path d="M61.3915 0.173828L65.3041 12.2358H77.9656L67.7223 19.6905L71.6349 31.7525L61.3915 24.2978L51.1482 31.7525L55.0608 19.6905L44.8175 12.2358H57.4789L61.3915 0.173828Z" fill="#FEC90D"/>
<path d="M104.61 0.173828L108.523 12.2358H121.185L110.941 19.6905L114.854 31.7525L104.61 24.2978L94.3671 31.7525L98.2797 19.6905L88.0364 12.2358H100.698L104.61 0.173828Z" fill="#FEC90D"/>
<path d="M147.829 0.173828L151.742 12.2358H164.403L154.16 19.6905L158.073 31.7525L147.829 24.2978L137.586 31.7525L141.499 19.6905L131.255 12.2358H143.917L147.829 0.173828Z" fill="#FEC90D"/>
<path d="M191.048 0.173828L194.961 12.2358H207.622L197.379 19.6905L201.292 31.7525L191.048 24.2978L180.805 31.7525L184.718 19.6905L174.474 12.2358H187.136L191.048 0.173828Z" fill="#FEC90D"/>
</svg>
